<?xml version="1.0" standalone="no"?>
<!DOCTYPE svg PUBLIC "-//W3C//DTD SVG 20010904//EN"
 "http://www.w3.org/TR/2001/REC-SVG-20010904/DTD/svg10.dtd">
<svg version="1.0" xmlns="http://www.w3.org/2000/svg"
 width="200.000000pt" height="200.000000pt" viewBox="0 0 200.000000 200.000000"
 preserveAspectRatio="xMidYMid meet">
<metadata>
Created by potrace 1.14, written by Peter Selinger 2001-2017
</metadata>
<g transform="translate(0.000000,200.000000) scale(0.100000,-0.100000)"
fill="#000000" stroke="none">
<path d="M910 1706 c-147 -31 -263 -147 -310 -311 -6 -22 -14 -47 -17 -55 -8
-20 -8 -18 -18 -75 -15 -88 -11 -115 21 -140 7 -5 12 -19 9 -30 -2 -11 -4 -23
-4 -28 -1 -4 -10 -2 -21 5 -32 21 -51 -8 -52 -78 -1 -122 22 -184 71 -184 25
0 30 -5 41 -45 29 -102 156 -257 250 -305 49 -25 153 -35 206 -21 100 27 240
148 289 250 23 47 35 61 50 60 47 -3 52 1 70 59 10 31 17 57 15 57 -2 0 2 10
9 23 6 12 18 22 26 22 27 0 17 54 -19 105 -34 47 -34 49 -17 71 13 17 17 37
16 76 -4 75 -30 226 -44 257 -83 178 -157 247 -299 281 -71 16 -204 19 -272 6z"/>
</g>
</svg>
